<svg xmlns="http://www.w3.org/2000/svg" xmlns:xlink="http://www.w3.org/1999/xlink" width="1122" zoomAndPan="magnify" viewBox="0 0 841.92 595.499987" height="793" preserveAspectRatio="xMidYMid meet" version="1.0"><defs><g/><clipPath id="36241c6a2b"><path d="M 0.3125 0 L 841.527344 0 L 841.527344 595 L 0.3125 595 Z M 0.3125 0 " clip-rule="nonzero"/></clipPath><clipPath id="cd373e3582"><path d="M 257 526 L 841.527344 526 L 841.527344 528 L 257 528 Z M 257 526 " clip-rule="nonzero"/></clipPath><clipPath id="f492985c78"><path d="M 0.3125 0 L 159.054688 0 L 159.054688 214.894531 L 0.3125 214.894531 Z M 0.3125 0 " clip-rule="nonzero"/></clipPath><clipPath id="0e9f915e10"><path d="M 3.636719 -95.941406 C -82.199219 -95.941406 -151.78125 -26.359375 -151.78125 59.476562 C -151.78125 145.3125 -82.199219 214.894531 3.636719 214.894531 C 89.472656 214.894531 159.054688 145.3125 159.054688 59.476562 C 159.054688 -26.359375 89.472656 -95.941406 3.636719 -95.941406 Z M 3.636719 -95.941406 " clip-rule="nonzero"/></clipPath><clipPath id="2ecb90e912"><path d="M 0.3125 67 L 647 67 L 647 68 L 0.3125 68 Z M 0.3125 67 " clip-rule="nonzero"/></clipPath><clipPath id="1347e5e863"><path d="M 694.121094 227.492188 L 730.839844 227.492188 L 730.839844 264.210938 L 694.121094 264.210938 Z M 694.121094 227.492188 " clip-rule="nonzero"/></clipPath><clipPath id="0b43546823"><path d="M 643.105469 379.878906 L 841.527344 379.878906 L 841.527344 595 L 643.105469 595 Z M 643.105469 379.878906 " clip-rule="nonzero"/></clipPath><clipPath id="d32e29020d"><path d="M 798.523438 379.878906 C 712.6875 379.878906 643.105469 449.460938 643.105469 535.296875 C 643.105469 621.132812 712.6875 690.714844 798.523438 690.714844 C 884.359375 690.714844 953.941406 621.132812 953.941406 535.296875 C 953.941406 449.460938 884.359375 379.878906 798.523438 379.878906 Z M 798.523438 379.878906 " clip-rule="nonzero"/></clipPath><clipPath id="7dad6ab370"><path d="M 420.90625 460.78125 L 504.835938 460.78125 L 504.835938 507.242188 L 420.90625 507.242188 Z M 420.90625 460.78125 " clip-rule="nonzero"/></clipPath></defs><g clip-path="url(#36241c6a2b)"><path fill="#ffffff" d="M 0.3125 0 L 841.855469 0 L 841.855469 595 L 0.3125 595 Z M 0.3125 0 " fill-opacity="1" fill-rule="nonzero"/><path fill="#92c7cf" d="M 0.3125 0 L 841.855469 0 L 841.855469 595 L 0.3125 595 Z M 0.3125 0 " fill-opacity="1" fill-rule="nonzero"/></g><g clip-path="url(#cd373e3582)"><path stroke-linecap="butt" transform="matrix(0.749371, 0, 0, 0.749371, 258.329364, 526.780714)" fill="none" stroke-linejoin="miter" d="M -0.00165338 0.501136 L 804.694311 0.501136 " stroke="#171717" stroke-width="1" stroke-opacity="1" stroke-miterlimit="4"/></g><g clip-path="url(#f492985c78)"><g clip-path="url(#0e9f915e10)"><path stroke-linecap="butt" transform="matrix(0.749371, 0, 0, 0.749371, -151.780483, -95.942655)" fill="none" stroke-linejoin="miter" d="M 207.396939 0.0016666 C 92.852922 0.0016666 -0.00102363 92.855612 -0.00102363 207.39963 C -0.00102363 321.943647 92.852922 414.797593 207.396939 414.797593 C 321.940957 414.797593 414.794902 321.943647 414.794902 207.39963 C 414.794902 92.855612 321.940957 0.0016666 207.396939 0.0016666 Z M 207.396939 0.0016666 " stroke="#000000" stroke-width="2" stroke-opacity="1" stroke-miterlimit="4"/></g></g><g clip-path="url(#2ecb90e912)"><path stroke-linecap="butt" transform="matrix(0.749371, 0.000000000000000132, -0.000000000000000132, 0.749371, -18.593435, 67.246095)" fill="none" stroke-linejoin="miter" d="M -0.000420756 0.500418 L 886.78525 0.500418 " stroke="#171717" stroke-width="1" stroke-opacity="1" stroke-miterlimit="4"/></g><g clip-path="url(#1347e5e863)"><path fill="#171717" d="M 712.5625 227.492188 C 710.765625 242.679688 709.308594 244.136719 694.121094 245.933594 C 694.152344 245.9375 694.183594 245.941406 694.214844 245.945312 C 709.3125 247.734375 710.769531 249.21875 712.5625 264.375 C 714.359375 249.1875 715.816406 247.730469 731.003906 245.933594 C 715.816406 244.136719 714.359375 242.679688 712.5625 227.492188 Z M 712.5625 227.492188 " fill-opacity="1" fill-rule="nonzero"/></g><g clip-path="url(#0b43546823)"><g clip-path="url(#d32e29020d)"><path stroke-linecap="butt" transform="matrix(0.749371, 0, 0, 0.749371, 643.104057, 379.878255)" fill="none" stroke-linejoin="miter" d="M 207.399846 0.000869605 C 92.855828 0.000869605 0.00188328 92.854815 0.00188328 207.398833 C 0.00188328 321.94285 92.855828 414.796796 207.399846 414.796796 C 321.943864 414.796796 414.797809 321.94285 414.797809 207.398833 C 414.797809 92.854815 321.943864 0.000869605 207.399846 0.000869605 Z M 207.399846 0.000869605 " stroke="#000000" stroke-width="2" stroke-opacity="1" stroke-miterlimit="4"/></g></g><g clip-path="url(#7dad6ab370)"><path fill="#000000" d="M 422.691406 461.765625 C 422.691406 462.007812 422.609375 462.210938 422.441406 462.382812 C 422.273438 462.550781 422.066406 462.636719 421.832031 462.636719 C 421.59375 462.636719 421.390625 462.550781 421.21875 462.378906 C 421.050781 462.210938 420.96875 462.003906 420.96875 461.765625 C 420.96875 461.523438 421.054688 461.320312 421.222656 461.148438 C 421.390625 460.980469 421.59375 460.894531 421.832031 460.898438 C 422.070312 460.898438 422.273438 460.984375 422.441406 461.152344 C 422.609375 461.320312 422.691406 461.527344 422.691406 461.765625 Z M 430.953125 460.898438 C 430.714844 460.894531 430.507812 460.980469 430.339844 461.148438 C 430.171875 461.320312 430.085938 461.523438 430.085938 461.765625 C 430.085938 462.003906 430.171875 462.210938 430.339844 462.378906 C 430.507812 462.550781 430.710938 462.636719 430.949219 462.636719 C 431.1875 462.636719 431.390625 462.550781 431.558594 462.382812 C 431.726562 462.210938 431.8125 462.007812 431.8125 461.765625 C 431.8125 461.527344 431.726562 461.320312 431.558594 461.152344 C 431.390625 460.984375 431.1875 460.898438 430.953125 460.898438 Z M 440.066406 460.898438 C 439.828125 460.898438 439.625 460.980469 439.457031 461.152344 C 439.289062 461.320312 439.207031 461.527344 439.207031 461.765625 C 439.207031 462.007812 439.289062 462.210938 439.457031 462.382812 C 439.625 462.550781 439.828125 462.636719 440.066406 462.636719 C 440.304688 462.636719 440.507812 462.550781 440.675781 462.382812 C 440.84375 462.210938 440.929688 462.007812 440.929688 461.765625 C 440.929688 461.527344 440.84375 461.320312 440.675781 461.152344 C 440.507812 460.980469 440.304688 460.898438 440.066406 460.898438 Z M 449.191406 460.898438 C 448.953125 460.898438 448.75 460.980469 448.582031 461.152344 C 448.414062 461.320312 448.328125 461.527344 448.328125 461.765625 C 448.328125 462.007812 448.414062 462.210938 448.582031 462.382812 C 448.75 462.550781 448.953125 462.636719 449.191406 462.636719 C 449.429688 462.636719 449.632812 462.550781 449.800781 462.382812 C 449.96875 462.210938 450.050781 462.007812 450.050781 461.765625 C 450.050781 461.527344 449.96875 461.320312 449.800781 461.152344 C 449.632812 460.980469 449.429688 460.898438 449.191406 460.898438 Z M 458.308594 460.898438 C 458.070312 460.898438 457.867188 460.980469 457.699219 461.152344 C 457.53125 461.320312 457.445312 461.527344 457.445312 461.765625 C 457.445312 462.007812 457.53125 462.210938 457.699219 462.382812 C 457.867188 462.550781 458.070312 462.636719 458.308594 462.636719 C 458.546875 462.636719 458.75 462.550781 458.917969 462.382812 C 459.085938 462.210938 459.171875 462.007812 459.171875 461.765625 C 459.171875 461.523438 459.085938 461.320312 458.917969 461.148438 C 458.746094 460.980469 458.542969 460.894531 458.304688 460.898438 Z M 467.421875 460.898438 C 467.183594 460.894531 466.980469 460.980469 466.8125 461.148438 C 466.644531 461.320312 466.558594 461.523438 466.558594 461.765625 C 466.558594 462.003906 466.640625 462.210938 466.808594 462.378906 C 466.976562 462.550781 467.179688 462.636719 467.417969 462.636719 C 467.65625 462.636719 467.859375 462.550781 468.027344 462.382812 C 468.199219 462.210938 468.28125 462.007812 468.28125 461.765625 C 468.28125 461.527344 468.199219 461.320312 468.03125 461.152344 C 467.863281 460.984375 467.660156 460.898438 467.421875 460.898438 Z M 476.539062 460.898438 C 476.304688 460.898438 476.101562 460.984375 475.933594 461.15625 C 475.765625 461.324219 475.683594 461.53125 475.683594 461.769531 C 475.6875 462.011719 475.769531 462.214844 475.941406 462.382812 C 476.109375 462.550781 476.3125 462.636719 476.550781 462.636719 C 476.785156 462.636719 476.988281 462.550781 477.15625 462.378906 C 477.324219 462.210938 477.410156 462.007812 477.410156 461.765625 C 477.410156 461.523438 477.324219 461.320312 477.152344 461.148438 C 476.984375 460.980469 476.78125 460.894531 476.539062 460.898438 Z M 485.65625 460.898438 C 485.417969 460.898438 485.214844 460.980469 485.046875 461.152344 C 484.878906 461.320312 484.792969 461.527344 484.792969 461.765625 C 484.792969 462.007812 484.878906 462.210938 485.046875 462.382812 C 485.214844 462.550781 485.417969 462.636719 485.65625 462.636719 C 485.894531 462.636719 486.097656 462.550781 486.265625 462.382812 C 486.433594 462.210938 486.519531 462.007812 486.519531 461.765625 C 486.519531 461.527344 486.433594 461.320312 486.265625 461.152344 C 486.097656 460.980469 485.894531 460.898438 485.65625 460.898438 Z M 494.773438 460.898438 C 494.535156 460.898438 494.332031 460.980469 494.164062 461.152344 C 493.996094 461.320312 493.914062 461.527344 493.914062 461.765625 C 493.914062 462.007812 493.996094 462.210938 494.164062 462.382812 C 494.332031 462.550781 494.535156 462.636719 494.773438 462.636719 C 495.011719 462.636719 495.214844 462.550781 495.382812 462.382812 C 495.550781 462.210938 495.636719 462.007812 495.636719 461.765625 C 495.636719 461.527344 495.550781 461.320312 495.382812 461.152344 C 495.214844 460.980469 495.011719 460.898438 494.773438 460.898438 Z M 503.894531 462.632812 C 504.132812 462.632812 504.335938 462.546875 504.503906 462.378906 C 504.671875 462.207031 504.753906 462.003906 504.753906 461.761719 C 504.753906 461.523438 504.671875 461.316406 504.5 461.148438 C 504.332031 460.980469 504.128906 460.894531 503.890625 460.894531 C 503.652344 460.894531 503.449219 460.980469 503.28125 461.152344 C 503.113281 461.320312 503.03125 461.527344 503.03125 461.765625 C 503.03125 462.007812 503.117188 462.210938 503.285156 462.378906 C 503.453125 462.550781 503.65625 462.632812 503.894531 462.632812 Z M 421.832031 469.792969 C 421.59375 469.792969 421.390625 469.875 421.222656 470.046875 C 421.054688 470.214844 420.96875 470.417969 420.96875 470.660156 C 420.96875 470.898438 421.050781 471.105469 421.21875 471.277344 C 421.390625 471.445312 421.59375 471.53125 421.832031 471.53125 C 422.066406 471.53125 422.273438 471.445312 422.441406 471.277344 C 422.609375 471.105469 422.691406 470.902344 422.691406 470.660156 C 422.691406 470.421875 422.609375 470.21875 422.441406 470.046875 C 422.273438 469.878906 422.070312 469.792969 421.832031 469.792969 Z M 430.953125 469.792969 C 430.714844 469.792969 430.507812 469.875 430.339844 470.046875 C 430.171875 470.214844 430.085938 470.417969 430.085938 470.660156 C 430.085938 470.898438 430.171875 471.105469 430.339844 471.277344 C 430.507812 471.445312 430.710938 471.53125 430.949219 471.53125 C 431.1875 471.53125 431.390625 471.445312 431.558594 471.277344 C 431.726562 471.105469 431.8125 470.902344 431.8125 470.660156 C 431.8125 470.421875 431.726562 470.21875 431.558594 470.046875 C 431.390625 469.878906 431.1875 469.792969 430.953125 469.792969 Z M 440.066406 469.792969 C 439.828125 469.792969 439.625 469.875 439.457031 470.046875 C 439.289062 470.214844 439.207031 470.421875 439.207031 470.660156 C 439.207031 470.902344 439.289062 471.105469 439.457031 471.277344 C 439.625 471.445312 439.828125 471.53125 440.066406 471.53125 C 440.304688 471.53125 440.507812 471.445312 440.675781 471.277344 C 440.84375 471.105469 440.929688 470.902344 440.929688 470.660156 C 440.929688 470.421875 440.84375 470.214844 440.675781 470.046875 C 440.507812 469.875 440.304688 469.792969 440.066406 469.792969 Z M 449.191406 469.792969 C 448.953125 469.792969 448.75 469.875 448.582031 470.046875 C 448.414062 470.214844 448.328125 470.421875 448.328125 470.660156 C 448.328125 470.902344 448.414062 471.105469 448.582031 471.277344 C 448.75 471.445312 448.953125 471.53125 449.191406 471.53125 C 449.429688 471.53125 449.632812 471.445312 449.800781 471.277344 C 449.96875 471.105469 450.050781 470.902344 450.050781 470.660156 C 450.050781 470.421875 449.96875 470.214844 449.800781 470.046875 C 449.632812 469.875 449.429688 469.792969 449.191406 469.792969 Z M 458.308594 469.792969 C 458.070312 469.792969 457.867188 469.875 457.699219 470.046875 C 457.53125 470.214844 457.445312 470.421875 457.445312 470.660156 C 457.445312 470.902344 457.53125 471.105469 457.699219 471.277344 C 457.867188 471.445312 458.070312 471.53125 458.308594 471.53125 C 458.546875 471.53125 458.75 471.445312 458.917969 471.277344 C 459.085938 471.105469 459.171875 470.902344 459.171875 470.660156 C 459.171875 470.421875 459.085938 470.214844 458.917969 470.046875 C 458.746094 469.875 458.542969 469.789062 458.304688 469.792969 Z M 467.425781 469.792969 C 467.1875 469.792969 466.984375 469.875 466.816406 470.046875 C 466.648438 470.214844 466.5625 470.417969 466.5625 470.660156 C 466.5625 470.898438 466.644531 471.105469 466.8125 471.277344 C 466.980469 471.445312 467.183594 471.53125 467.421875 471.53125 C 467.660156 471.53125 467.863281 471.445312 468.035156 471.277344 C 468.203125 471.105469 468.285156 470.902344 468.285156 470.660156 C 468.285156 470.421875 468.203125 470.214844 468.03125 470.046875 C 467.863281 469.875 467.660156 469.792969 467.421875 469.792969 Z M 476.542969 469.792969 C 476.308594 469.792969 476.101562 469.875 475.933594 470.046875 C 475.765625 470.214844 475.679688 470.417969 475.679688 470.660156 C 475.679688 470.898438 475.765625 471.105469 475.933594 471.277344 C 476.101562 471.445312 476.304688 471.53125 476.542969 471.53125 C 476.78125 471.53125 476.984375 471.445312 477.152344 471.277344 C 477.320312 471.105469 477.40625 470.902344 477.40625 470.660156 C 477.40625 470.421875 477.320312 470.214844 477.152344 470.046875 C 476.984375 469.875 476.777344 469.792969 476.539062 469.792969 Z M 485.660156 469.792969 C 485.421875 469.792969 485.21875 469.875 485.050781 470.046875 C 484.882812 470.214844 484.800781 470.421875 484.800781 470.660156 C 484.800781 470.902344 484.882812 471.105469 485.050781 471.277344 C 485.21875 471.445312 485.421875 471.53125 485.660156 471.53125 C 485.898438 471.53125 486.101562 471.445312 486.269531 471.277344 C 486.4375 471.105469 486.523438 470.902344 486.523438 470.660156 C 486.523438 470.421875 486.4375 470.214844 486.269531 470.046875 C 486.097656 469.875 485.894531 469.789062 485.65625 469.792969 Z M 494.777344 469.792969 C 494.542969 469.792969 494.339844 469.875 494.167969 470.046875 C 494 470.214844 493.917969 470.421875 493.917969 470.660156 C 493.917969 470.902344 494 471.105469 494.167969 471.277344 C 494.339844 471.445312 494.542969 471.53125 494.777344 471.53125 C 495.015625 471.53125 495.21875 471.445312 495.390625 471.277344 C 495.558594 471.105469 495.640625 470.902344 495.640625 470.660156 C 495.640625 470.421875 495.554688 470.214844 495.386719 470.046875 C 495.21875 469.875 495.015625 469.789062 494.773438 469.792969 Z M 503.898438 469.792969 C 503.660156 469.789062 503.453125 469.871094 503.28125 470.039062 C 503.113281 470.207031 503.023438 470.410156 503.023438 470.652344 C 503.019531 470.890625 503.101562 471.097656 503.269531 471.269531 C 503.433594 471.441406 503.636719 471.527344 503.875 471.53125 C 504.117188 471.53125 504.320312 471.449219 504.488281 471.28125 C 504.660156 471.113281 504.746094 470.90625 504.746094 470.664062 C 504.746094 470.425781 504.664062 470.222656 504.5 470.050781 C 504.332031 469.882812 504.128906 469.792969 503.894531 469.792969 Z M 421.832031 478.699219 C 421.59375 478.699219 421.390625 478.78125 421.222656 478.949219 C 421.054688 479.121094 420.96875 479.324219 420.96875 479.5625 C 420.96875 479.804688 421.050781 480.007812 421.21875 480.179688 C 421.382812 480.347656 421.585938 480.433594 421.824219 480.4375 C 422.0625 480.4375 422.265625 480.355469 422.433594 480.1875 C 422.605469 480.019531 422.691406 479.816406 422.691406 479.578125 C 422.695312 479.335938 422.613281 479.128906 422.445312 478.957031 C 422.277344 478.785156 422.074219 478.699219 421.832031 478.699219 Z M 430.953125 478.699219 C 430.714844 478.699219 430.507812 478.78125 430.339844 478.953125 C 430.171875 479.121094 430.085938 479.328125 430.085938 479.566406 C 430.085938 479.808594 430.171875 480.011719 430.339844 480.183594 C 430.507812 480.351562 430.710938 480.4375 430.949219 480.4375 C 431.1875 480.4375 431.390625 480.351562 431.558594 480.179688 C 431.726562 480.011719 431.8125 479.804688 431.8125 479.566406 C 431.808594 479.328125 431.726562 479.121094 431.558594 478.953125 C 431.390625 478.785156 431.1875 478.699219 430.953125 478.699219 Z M 440.066406 478.699219 C 439.828125 478.699219 439.628906 478.78125 439.457031 478.953125 C 439.289062 479.121094 439.207031 479.324219 439.207031 479.566406 C 439.203125 479.804688 439.289062 480.007812 439.453125 480.179688 C 439.621094 480.351562 439.824219 480.4375 440.0625 480.4375 C 440.300781 480.4375 440.503906 480.355469 440.671875 480.1875 C 440.839844 480.019531 440.925781 479.816406 440.929688 479.578125 C 440.933594 479.335938 440.847656 479.128906 440.679688 478.957031 C 440.511719 478.785156 440.308594 478.699219 440.066406 478.699219 Z M 449.1875 478.699219 C 448.949219 478.699219 448.746094 478.785156 448.574219 478.953125 C 448.40625 479.125 448.324219 479.328125 448.324219 479.570312 C 448.324219 479.808594 448.410156 480.015625 448.578125 480.183594 C 448.746094 480.351562 448.949219 480.4375 449.1875 480.4375 C 449.425781 480.4375 449.628906 480.351562 449.796875 480.179688 C 449.964844 480.011719 450.046875 479.804688 450.046875 479.566406 C 450.046875 479.328125 449.964844 479.121094 449.796875 478.953125 C 449.628906 478.785156 449.425781 478.699219 449.191406 478.699219 Z M 458.304688 478.699219 C 458.066406 478.699219 457.863281 478.785156 457.695312 478.953125 C 457.527344 479.125 457.441406 479.328125 457.441406 479.570312 C 457.441406 479.808594 457.527344 480.015625 457.695312 480.183594 C 457.863281 480.351562 458.066406 480.4375 458.304688 480.4375 C 458.542969 480.4375 458.746094 480.351562 458.914062 480.179688 C 459.082031 480.011719 459.167969 479.804688 459.164062 479.566406 C 459.164062 479.324219 459.082031 479.121094 458.914062 478.953125 C 458.746094 478.78125 458.542969 478.699219 458.304688 478.699219 Z M 467.421875 478.699219 C 467.183594 478.699219 466.980469 478.78125 466.8125 478.953125 C 466.644531 479.121094 466.558594 479.328125 466.558594 479.566406 C 466.558594 479.808594 466.640625 480.011719 466.808594 480.183594 C 466.980469 480.351562 467.183594 480.4375 467.421875 480.4375 C 467.660156 480.4375 467.863281 480.351562 468.03125 480.179688 C 468.199219 480.011719 468.28125 479.804688 468.28125 479.566406 C 468.28125 479.328125 468.195312 479.121094 468.03125 478.953125 C 467.863281 478.785156 467.660156 478.699219 467.421875 478.699219 Z M 476.539062 478.699219 C 476.304688 478.699219 476.101562 478.785156 475.933594 478.957031 C 475.769531 479.125 475.683594 479.332031 475.683594 479.570312 C 475.683594 479.808594 475.769531 480.011719 475.9375 480.183594 C 476.105469 480.351562 476.304688 480.4375 476.542969 480.4375 C 476.78125 480.4375 476.984375 480.355469 477.152344 480.1875 C 477.320312 480.019531 477.40625 479.816406 477.410156 479.578125 C 477.410156 479.332031 477.328125 479.125 477.15625 478.953125 C 476.988281 478.78125 476.78125 478.695312 476.539062 478.699219 Z M 485.65625 478.699219 C 485.417969 478.699219 485.214844 478.785156 485.046875 478.953125 C 484.878906 479.125 484.792969 479.328125 484.792969 479.570312 C 484.792969 479.808594 484.878906 480.015625 485.046875 480.183594 C 485.214844 480.351562 485.417969 480.4375 485.65625 480.4375 C 485.894531 480.4375 486.097656 480.351562 486.265625 480.179688 C 486.433594 480.011719 486.519531 479.804688 486.519531 479.566406 C 486.519531 479.324219 486.433594 479.121094 486.265625 478.953125 C 486.097656 478.78125 485.894531 478.699219 485.65625 478.699219 Z M 494.773438 478.699219 C 494.535156 478.699219 494.332031 478.785156 494.164062 478.953125 C 493.996094 479.125 493.914062 479.328125 493.914062 479.570312 C 493.914062 479.808594 493.996094 480.015625 494.167969 480.183594 C 494.335938 480.351562 494.539062 480.4375 494.777344 480.4375 C 495.015625 480.4375 495.21875 480.351562 495.386719 480.179688 C 495.554688 480.011719 495.636719 479.804688 495.636719 479.566406 C 495.636719 479.324219 495.550781 479.121094 495.382812 478.953125 C 495.214844 478.78125 495.011719 478.699219 494.773438 478.699219 Z M 503.894531 478.699219 C 503.65625 478.695312 503.449219 478.777344 503.28125 478.945312 C 503.109375 479.113281 503.023438 479.320312 503.023438 479.558594 C 503.019531 479.800781 503.101562 480.003906 503.269531 480.175781 C 503.433594 480.347656 503.636719 480.433594 503.875 480.4375 C 504.113281 480.441406 504.316406 480.355469 504.488281 480.1875 C 504.65625 480.019531 504.742188 479.816406 504.746094 479.578125 C 504.75 479.335938 504.667969 479.128906 504.5 478.960938 C 504.332031 478.789062 504.132812 478.699219 503.894531 478.699219 Z M 421.832031 487.59375 C 421.59375 487.59375 421.390625 487.675781 421.222656 487.847656 C 421.054688 488.015625 420.96875 488.21875 420.96875 488.457031 C 420.96875 488.699219 421.050781 488.902344 421.21875 489.074219 C 421.382812 489.246094 421.585938 489.332031 421.824219 489.332031 C 422.0625 489.335938 422.265625 489.25 422.433594 489.082031 C 422.605469 488.914062 422.691406 488.710938 422.691406 488.472656 C 422.695312 488.230469 422.609375 488.027344 422.441406 487.855469 C 422.273438 487.683594 422.070312 487.597656 421.832031 487.597656 Z M 430.953125 487.59375 C 430.714844 487.59375 430.507812 487.675781 430.339844 487.847656 C 430.171875 488.015625 430.085938 488.222656 430.085938 488.460938 C 430.085938 488.703125 430.171875 488.90625 430.339844 489.078125 C 430.507812 489.246094 430.710938 489.332031 430.949219 489.332031 C 431.1875 489.332031 431.390625 489.246094 431.558594 489.078125 C 431.726562 488.910156 431.8125 488.703125 431.8125 488.464844 C 431.808594 488.222656 431.726562 488.019531 431.558594 487.851562 C 431.390625 487.683594 431.1875 487.597656 430.953125 487.597656 Z M 440.066406 487.59375 C 439.828125 487.59375 439.628906 487.679688 439.457031 487.847656 C 439.289062 488.015625 439.207031 488.21875 439.207031 488.460938 C 439.203125 488.699219 439.289062 488.90625 439.453125 489.074219 C 439.621094 489.246094 439.824219 489.332031 440.0625 489.332031 C 440.300781 489.335938 440.503906 489.25 440.671875 489.082031 C 440.839844 488.914062 440.925781 488.710938 440.929688 488.472656 C 440.929688 488.230469 440.847656 488.023438 440.679688 487.855469 C 440.511719 487.683594 440.304688 487.597656 440.066406 487.597656 Z M 449.1875 487.59375 C 448.949219 487.59375 448.746094 487.679688 448.574219 487.847656 C 448.40625 488.019531 448.324219 488.222656 448.324219 488.464844 C 448.324219 488.703125 448.40625 488.90625 448.574219 489.078125 C 448.746094 489.246094 448.949219 489.332031 449.1875 489.332031 C 449.421875 489.332031 449.625 489.246094 449.796875 489.078125 C 449.964844 488.90625 450.046875 488.703125 450.046875 488.464844 C 450.046875 488.222656 449.960938 488.019531 449.796875 487.851562 C 449.628906 487.683594 449.425781 487.597656 449.191406 487.597656 Z M 458.304688 487.59375 C 458.066406 487.59375 457.863281 487.679688 457.695312 487.847656 C 457.527344 488.019531 457.441406 488.222656 457.441406 488.464844 C 457.441406 488.703125 457.527344 488.90625 457.695312 489.078125 C 457.863281 489.246094 458.066406 489.332031 458.304688 489.332031 C 458.542969 489.332031 458.746094 489.246094 458.914062 489.078125 C 459.082031 488.90625 459.164062 488.703125 459.164062 488.464844 C 459.164062 488.222656 459.078125 488.019531 458.910156 487.851562 C 458.742188 487.683594 458.542969 487.597656 458.304688 487.597656 Z M 467.421875 487.59375 C 467.183594 487.59375 466.980469 487.675781 466.8125 487.847656 C 466.644531 488.015625 466.558594 488.222656 466.558594 488.460938 C 466.558594 488.703125 466.640625 488.90625 466.808594 489.078125 C 466.976562 489.246094 467.179688 489.332031 467.417969 489.332031 C 467.65625 489.332031 467.859375 489.246094 468.027344 489.078125 C 468.199219 488.910156 468.28125 488.703125 468.28125 488.464844 C 468.28125 488.222656 468.195312 488.019531 468.027344 487.851562 C 467.859375 487.683594 467.660156 487.597656 467.421875 487.597656 Z M 476.539062 487.59375 C 476.304688 487.59375 476.101562 487.679688 475.933594 487.851562 C 475.769531 488.019531 475.683594 488.226562 475.683594 488.464844 C 475.683594 488.703125 475.769531 488.90625 475.9375 489.078125 C 476.105469 489.246094 476.304688 489.332031 476.542969 489.332031 C 476.78125 489.332031 476.984375 489.25 477.152344 489.082031 C 477.320312 488.914062 477.40625 488.710938 477.410156 488.472656 C 477.410156 488.230469 477.324219 488.023438 477.15625 487.851562 C 476.984375 487.679688 476.78125 487.597656 476.539062 487.597656 Z M 485.65625 487.59375 C 485.417969 487.59375 485.214844 487.679688 485.046875 487.847656 C 484.878906 488.019531 484.792969 488.222656 484.792969 488.464844 C 484.792969 488.703125 484.878906 488.90625 485.046875 489.078125 C 485.214844 489.246094 485.417969 489.332031 485.65625 489.332031 C 485.894531 489.332031 486.097656 489.246094 486.265625 489.078125 C 486.433594 488.90625 486.519531 488.703125 486.519531 488.464844 C 486.515625 488.222656 486.433594 488.019531 486.265625 487.851562 C 486.097656 487.683594 485.894531 487.597656 485.65625 487.597656 Z M 494.773438 487.59375 C 494.535156 487.59375 494.332031 487.679688 494.164062 487.847656 C 493.996094 488.019531 493.914062 488.222656 493.914062 488.464844 C 493.914062 488.703125 493.996094 488.90625 494.164062 489.078125 C 494.332031 489.246094 494.535156 489.332031 494.773438 489.332031 C 495.011719 489.332031 495.214844 489.246094 495.382812 489.078125 C 495.550781 488.90625 495.636719 488.703125 495.636719 488.464844 C 495.636719 488.222656 495.550781 488.019531 495.382812 487.851562 C 495.214844 487.683594 495.011719 487.597656 494.773438 487.597656 Z M 503.894531 487.59375 C 503.65625 487.589844 503.449219 487.671875 503.28125 487.84375 C 503.109375 488.011719 503.023438 488.214844 503.023438 488.453125 C 503.019531 488.695312 503.101562 488.898438 503.269531 489.070312 C 503.433594 489.242188 503.636719 489.328125 503.875 489.332031 C 504.113281 489.335938 504.316406 489.253906 504.488281 489.085938 C 504.65625 488.914062 504.742188 488.710938 504.746094 488.472656 C 504.746094 488.234375 504.664062 488.027344 504.5 487.855469 C 504.332031 487.6875 504.128906 487.601562 503.894531 487.597656 Z M 421.832031 496.5 C 421.59375 496.5 421.390625 496.582031 421.222656 496.753906 C 421.054688 496.921875 420.96875 497.128906 420.96875 497.367188 C 420.96875 497.609375 421.054688 497.8125 421.222656 497.984375 C 421.390625 498.152344 421.59375 498.238281 421.832031 498.238281 C 422.070312 498.238281 422.273438 498.152344 422.441406 497.984375 C 422.609375 497.8125 422.695312 497.609375 422.691406 497.367188 C 422.691406 497.128906 422.609375 496.921875 422.441406 496.753906 C 422.273438 496.585938 422.070312 496.5 421.832031 496.5 Z M 430.953125 496.5 C 430.714844 496.5 430.507812 496.582031 430.339844 496.753906 C 430.171875 496.921875 430.085938 497.128906 430.085938 497.367188 C 430.085938 497.609375 430.171875 497.8125 430.339844 497.984375 C 430.507812 498.152344 430.710938 498.238281 430.949219 498.238281 C 431.1875 498.238281 431.390625 498.152344 431.558594 497.984375 C 431.726562 497.8125 431.8125 497.609375 431.8125 497.367188 C 431.808594 497.128906 431.726562 496.921875 431.558594 496.753906 C 431.390625 496.585938 431.1875 496.5 430.953125 496.5 Z M 440.066406 496.5 C 439.828125 496.5 439.625 496.585938 439.457031 496.753906 C 439.289062 496.925781 439.207031 497.128906 439.207031 497.371094 C 439.207031 497.609375 439.289062 497.816406 439.457031 497.984375 C 439.628906 498.15625 439.832031 498.238281 440.070312 498.238281 C 440.308594 498.238281 440.511719 498.152344 440.679688 497.984375 C 440.847656 497.8125 440.929688 497.605469 440.929688 497.367188 C 440.929688 497.128906 440.84375 496.921875 440.675781 496.753906 C 440.507812 496.585938 440.304688 496.5 440.066406 496.5 Z M 449.1875 496.5 C 448.949219 496.5 448.746094 496.585938 448.574219 496.753906 C 448.40625 496.925781 448.324219 497.128906 448.324219 497.371094 C 448.324219 497.609375 448.410156 497.816406 448.578125 497.984375 C 448.746094 498.15625 448.949219 498.238281 449.1875 498.238281 C 449.425781 498.238281 449.628906 498.152344 449.796875 497.984375 C 449.964844 497.8125 450.046875 497.605469 450.046875 497.367188 C 450.046875 497.128906 449.964844 496.925781 449.796875 496.753906 C 449.628906 496.585938 449.425781 496.5 449.191406 496.5 Z M 458.304688 496.5 C 458.066406 496.5 457.863281 496.585938 457.695312 496.753906 C 457.527344 496.925781 457.441406 497.128906 457.441406 497.371094 C 457.441406 497.609375 457.527344 497.816406 457.695312 497.984375 C 457.863281 498.15625 458.066406 498.238281 458.304688 498.238281 C 458.542969 498.238281 458.746094 498.152344 458.914062 497.984375 C 459.082031 497.8125 459.167969 497.605469 459.164062 497.367188 C 459.164062 497.128906 459.082031 496.921875 458.914062 496.753906 C 458.746094 496.585938 458.542969 496.5 458.304688 496.5 Z M 467.421875 496.5 C 467.183594 496.5 466.980469 496.582031 466.8125 496.753906 C 466.644531 496.921875 466.558594 497.128906 466.558594 497.367188 C 466.558594 497.609375 466.640625 497.8125 466.808594 497.984375 C 466.980469 498.152344 467.183594 498.238281 467.421875 498.238281 C 467.660156 498.238281 467.863281 498.152344 468.03125 497.984375 C 468.199219 497.8125 468.28125 497.609375 468.28125 497.367188 C 468.28125 497.128906 468.195312 496.921875 468.03125 496.753906 C 467.863281 496.585938 467.660156 496.5 467.421875 496.5 Z M 476.539062 496.5 C 476.300781 496.5 476.101562 496.589844 475.933594 496.757812 C 475.765625 496.929688 475.683594 497.132812 475.683594 497.375 C 475.6875 497.613281 475.773438 497.820312 475.941406 497.988281 C 476.109375 498.15625 476.3125 498.238281 476.550781 498.238281 C 476.789062 498.238281 476.992188 498.152344 477.160156 497.980469 C 477.328125 497.8125 477.410156 497.605469 477.410156 497.367188 C 477.410156 497.125 477.324219 496.921875 477.152344 496.75 C 476.984375 496.582031 476.78125 496.496094 476.539062 496.5 Z M 485.65625 496.5 C 485.417969 496.5 485.214844 496.585938 485.046875 496.753906 C 484.878906 496.925781 484.792969 497.128906 484.792969 497.371094 C 484.792969 497.609375 484.878906 497.816406 485.046875 497.984375 C 485.214844 498.15625 485.417969 498.238281 485.65625 498.238281 C 485.894531 498.238281 486.097656 498.152344 486.265625 497.984375 C 486.433594 497.8125 486.519531 497.605469 486.519531 497.367188 C 486.519531 497.128906 486.433594 496.921875 486.265625 496.753906 C 486.097656 496.585938 485.894531 496.5 485.65625 496.5 Z M 494.773438 496.5 C 494.535156 496.5 494.332031 496.585938 494.164062 496.753906 C 493.996094 496.925781 493.914062 497.128906 493.914062 497.371094 C 493.914062 497.609375 493.996094 497.816406 494.167969 497.984375 C 494.335938 498.15625 494.539062 498.238281 494.777344 498.238281 C 495.015625 498.238281 495.21875 498.152344 495.386719 497.984375 C 495.554688 497.8125 495.636719 497.605469 495.636719 497.367188 C 495.636719 497.128906 495.550781 496.921875 495.382812 496.753906 C 495.214844 496.585938 495.011719 496.5 494.773438 496.5 Z M 503.894531 496.5 C 503.65625 496.496094 503.449219 496.582031 503.28125 496.75 C 503.109375 496.917969 503.023438 497.125 503.023438 497.363281 C 503.019531 497.605469 503.105469 497.8125 503.273438 497.980469 C 503.441406 498.152344 503.644531 498.238281 503.882812 498.238281 C 504.121094 498.238281 504.324219 498.152344 504.492188 497.984375 C 504.664062 497.8125 504.746094 497.609375 504.746094 497.367188 C 504.746094 497.128906 504.664062 496.925781 504.496094 496.757812 C 504.328125 496.585938 504.128906 496.503906 503.894531 496.5 Z M 421.832031 505.394531 C 421.59375 505.394531 421.390625 505.480469 421.222656 505.648438 C 421.054688 505.816406 420.96875 506.023438 420.96875 506.265625 C 420.96875 506.503906 421.054688 506.710938 421.222656 506.878906 C 421.390625 507.050781 421.59375 507.132812 421.832031 507.132812 C 422.070312 507.132812 422.273438 507.046875 422.441406 506.878906 C 422.609375 506.707031 422.695312 506.503906 422.691406 506.261719 C 422.691406 506.023438 422.605469 505.820312 422.4375 505.652344 C 422.269531 505.484375 422.070312 505.398438 421.832031 505.398438 Z M 430.953125 505.394531 C 430.714844 505.394531 430.507812 505.480469 430.339844 505.648438 C 430.171875 505.816406 430.085938 506.023438 430.085938 506.261719 C 430.085938 506.503906 430.171875 506.707031 430.339844 506.878906 C 430.507812 507.046875 430.710938 507.132812 430.949219 507.132812 C 431.1875 507.132812 431.390625 507.050781 431.558594 506.878906 C 431.726562 506.710938 431.8125 506.503906 431.8125 506.265625 C 431.808594 506.027344 431.726562 505.820312 431.558594 505.652344 C 431.390625 505.484375 431.1875 505.398438 430.953125 505.398438 Z M 440.066406 505.394531 C 439.828125 505.394531 439.625 505.480469 439.457031 505.648438 C 439.289062 505.820312 439.207031 506.023438 439.207031 506.265625 C 439.207031 506.503906 439.289062 506.710938 439.457031 506.878906 C 439.628906 507.050781 439.832031 507.132812 440.070312 507.132812 C 440.308594 507.132812 440.511719 507.046875 440.679688 506.878906 C 440.847656 506.707031 440.929688 506.503906 440.929688 506.261719 C 440.925781 506.023438 440.84375 505.820312 440.675781 505.652344 C 440.507812 505.484375 440.304688 505.398438 440.066406 505.398438 Z M 449.1875 505.394531 C 448.949219 505.394531 448.746094 505.480469 448.574219 505.648438 C 448.40625 505.820312 448.324219 506.023438 448.324219 506.265625 C 448.324219 506.503906 448.40625 506.710938 448.574219 506.878906 C 448.746094 507.050781 448.949219 507.132812 449.1875 507.132812 C 449.421875 507.132812 449.625 507.050781 449.796875 506.878906 C 449.964844 506.710938 450.046875 506.503906 450.046875 506.265625 C 450.046875 506.027344 449.960938 505.824219 449.796875 505.652344 C 449.628906 505.484375 449.425781 505.402344 449.191406 505.398438 Z M 458.304688 505.394531 C 458.066406 505.394531 457.863281 505.480469 457.695312 505.648438 C 457.527344 505.820312 457.441406 506.023438 457.441406 506.265625 C 457.441406 506.503906 457.527344 506.710938 457.695312 506.878906 C 457.863281 507.050781 458.066406 507.132812 458.304688 507.132812 C 458.542969 507.132812 458.746094 507.050781 458.914062 506.878906 C 459.082031 506.710938 459.164062 506.503906 459.164062 506.265625 C 459.164062 506.023438 459.078125 505.820312 458.910156 505.652344 C 458.742188 505.484375 458.542969 505.398438 458.304688 505.398438 Z M 467.421875 505.394531 C 467.183594 505.394531 466.980469 505.480469 466.8125 505.648438 C 466.644531 505.816406 466.558594 506.023438 466.558594 506.261719 C 466.558594 506.503906 466.640625 506.707031 466.808594 506.878906 C 466.976562 507.046875 467.179688 507.132812 467.417969 507.132812 C 467.65625 507.132812 467.859375 507.050781 468.027344 506.878906 C 468.199219 506.710938 468.28125 506.503906 468.28125 506.265625 C 468.28125 506.027344 468.195312 505.820312 468.027344 505.652344 C 467.859375 505.484375 467.660156 505.398438 467.421875 505.398438 Z M 476.539062 505.394531 C 476.300781 505.398438 476.101562 505.484375 475.933594 505.652344 C 475.765625 505.824219 475.683594 506.03125 475.683594 506.269531 C 475.6875 506.507812 475.773438 506.714844 475.941406 506.882812 C 476.109375 507.050781 476.3125 507.136719 476.550781 507.132812 C 476.789062 507.132812 476.992188 507.046875 477.160156 506.878906 C 477.328125 506.707031 477.410156 506.503906 477.410156 506.261719 C 477.40625 506.023438 477.320312 505.816406 477.152344 505.648438 C 476.980469 505.480469 476.777344 505.398438 476.539062 505.398438 Z M 485.65625 505.394531 C 485.417969 505.394531 485.214844 505.480469 485.046875 505.648438 C 484.878906 505.820312 484.792969 506.023438 484.792969 506.265625 C 484.792969 506.503906 484.878906 506.710938 485.046875 506.878906 C 485.214844 507.050781 485.417969 507.132812 485.65625 507.132812 C 485.894531 507.132812 486.097656 507.050781 486.265625 506.878906 C 486.433594 506.710938 486.519531 506.503906 486.519531 506.265625 C 486.515625 506.023438 486.433594 505.820312 486.265625 505.652344 C 486.097656 505.484375 485.894531 505.398438 485.65625 505.398438 Z M 494.773438 505.394531 C 494.535156 505.394531 494.332031 505.480469 494.164062 505.648438 C 493.996094 505.820312 493.914062 506.023438 493.914062 506.265625 C 493.914062 506.503906 493.996094 506.710938 494.164062 506.878906 C 494.332031 507.050781 494.535156 507.132812 494.773438 507.132812 C 495.011719 507.132812 495.214844 507.050781 495.382812 506.878906 C 495.550781 506.710938 495.636719 506.503906 495.636719 506.265625 C 495.636719 506.023438 495.550781 505.820312 495.382812 505.652344 C 495.214844 505.484375 495.011719 505.398438 494.773438 505.398438 Z M 503.894531 505.394531 C 503.65625 505.390625 503.449219 505.476562 503.28125 505.644531 C 503.109375 505.8125 503.023438 506.019531 503.023438 506.257812 C 503.019531 506.5 503.105469 506.707031 503.273438 506.875 C 503.441406 507.046875 503.644531 507.132812 503.882812 507.132812 C 504.121094 507.132812 504.324219 507.050781 504.492188 506.878906 C 504.664062 506.707031 504.746094 506.503906 504.746094 506.261719 C 504.746094 506.023438 504.660156 505.824219 504.496094 505.65625 C 504.328125 505.488281 504.128906 505.402344 503.894531 505.398438 Z M 503.894531 505.394531 " fill-opacity="1" fill-rule="nonzero"/></g><g fill="#171717" fill-opacity="1"><g transform="translate(50.979127, 368.336453)"><g><path d="M 6.011719 0 L 25.109375 0 L 25.109375 -1.53125 C 21.453125 -2.59375 20.394531 -5.304688 20.394531 -14.972656 L 20.394531 -32.652344 L 28.761719 -32.652344 C 50.691406 -32.652344 62.125 -43.617188 62.125 -59.296875 C 62.125 -70.730469 54.34375 -82.519531 29.941406 -82.519531 L 6.011719 -82.519531 L 6.011719 -80.984375 C 9.546875 -79.925781 10.726562 -77.214844 10.726562 -67.546875 L 10.726562 -14.972656 C 10.726562 -5.304688 9.546875 -2.59375 6.011719 -1.53125 Z M 20.394531 -34.421875 L 20.394531 -80.515625 C 21.808594 -80.632812 23.695312 -80.75 25.34375 -80.75 C 44.324219 -80.75 51.75 -69.199219 51.75 -56.585938 C 51.75 -42.675781 43.617188 -34.421875 28.527344 -34.421875 Z M 20.394531 -34.421875 "/></g></g></g><g fill="#171717" fill-opacity="1"><g transform="translate(116.045402, 368.336453)"><g><path d="M 48.097656 1.179688 C 67.902344 1.179688 89.828125 -11.789062 89.828125 -40.90625 C 89.828125 -69.785156 68.019531 -83.460938 48.097656 -83.460938 C 23.105469 -83.460938 6.128906 -65.542969 6.128906 -41.378906 C 6.128906 -12.140625 28.054688 1.179688 48.097656 1.179688 Z M 15.5625 -48.214844 C 14.851562 -67.429688 25.34375 -80.75 43.261719 -80.75 C 64.363281 -80.75 79.808594 -57.761719 80.632812 -33.125 C 81.222656 -15.441406 71.910156 -1.769531 53.046875 -1.769531 C 31.945312 -1.769531 16.386719 -24.519531 15.5625 -48.214844 Z M 15.5625 -48.214844 "/></g></g></g><g fill="#171717" fill-opacity="1"><g transform="translate(211.876711, 368.336453)"><g><path d="M 66.015625 0.824219 C 68.371094 0.824219 71.4375 0.589844 73.207031 0 L 73.207031 -1.414062 C 72.617188 -1.296875 72.027344 -1.296875 71.320312 -1.296875 C 67.3125 -1.296875 64.953125 -5.1875 59.296875 -19.332031 C 53.636719 -33.832031 51.398438 -41.023438 36.898438 -42.910156 C 52.222656 -44.679688 60.238281 -53.046875 60.238281 -64.128906 C 60.238281 -74.621094 53.164062 -82.519531 29.234375 -82.519531 L 6.011719 -82.519531 L 6.011719 -80.984375 C 9.667969 -79.925781 10.726562 -77.214844 10.726562 -67.546875 L 10.726562 -14.972656 C 10.726562 -5.304688 9.667969 -2.59375 6.011719 -1.53125 L 6.011719 0 L 25.109375 0 L 25.109375 -1.53125 C 21.453125 -2.59375 20.394531 -5.304688 20.394531 -14.972656 L 20.394531 -42.554688 L 27.9375 -42.554688 C 42.085938 -42.554688 43.027344 -34.304688 49.863281 -18.035156 C 55.050781 -5.777344 56.9375 0.824219 66.015625 0.824219 Z M 20.394531 -44.324219 L 20.394531 -80.515625 C 22.28125 -80.632812 24.167969 -80.75 25.933594 -80.75 C 43.382812 -80.75 50.21875 -71.910156 50.21875 -61.417969 C 50.21875 -51.398438 43.851562 -44.324219 30.296875 -44.324219 Z M 20.394531 -44.324219 "/></g></g></g><g fill="#171717" fill-opacity="1"><g transform="translate(284.015412, 368.336453)"><g><path d="M 23.457031 0 L 42.675781 0 L 42.675781 -1.53125 C 39.019531 -2.59375 37.957031 -5.304688 37.957031 -14.972656 L 37.957031 -80.632812 L 43.5 -80.632812 C 54.109375 -80.632812 58.707031 -77.804688 62.714844 -69.316406 L 64.011719 -69.550781 L 63.304688 -82.519531 L 2.59375 -82.519531 L 1.886719 -69.550781 L 3.183594 -69.316406 C 7.191406 -77.804688 11.789062 -80.632812 22.398438 -80.632812 L 28.175781 -80.632812 L 28.175781 -14.972656 C 28.175781 -5.304688 27.113281 -2.59375 23.457031 -1.53125 Z M 23.457031 0 "/></g></g></g><g fill="#171717" fill-opacity="1"><g transform="translate(350.024667, 368.336453)"><g><path d="M 6.011719 0 L 25.109375 0 L 25.109375 -1.53125 C 21.453125 -2.59375 20.394531 -5.304688 20.394531 -14.972656 L 20.394531 -44.207031 L 34.421875 -44.207031 C 47.859375 -44.207031 51.160156 -41.378906 52.695312 -36.074219 L 54.109375 -36.074219 L 54.109375 -53.992188 L 52.695312 -53.992188 C 51.160156 -48.804688 47.859375 -45.972656 34.421875 -46.09375 L 20.394531 -46.09375 L 20.394531 -80.632812 L 41.257812 -80.632812 C 52.339844 -80.632812 57.292969 -77.683594 61.300781 -69.785156 L 62.597656 -70.140625 L 61.535156 -82.519531 L 6.011719 -82.519531 L 6.011719 -80.984375 C 9.546875 -79.925781 10.726562 -77.214844 10.726562 -67.546875 L 10.726562 -14.972656 C 10.726562 -5.304688 9.546875 -2.59375 6.011719 -1.53125 Z M 6.011719 0 "/></g></g></g><g fill="#171717" fill-opacity="1"><g transform="translate(415.916055, 368.336453)"><g><path d="M 48.097656 1.179688 C 67.902344 1.179688 89.828125 -11.789062 89.828125 -40.90625 C 89.828125 -69.785156 68.019531 -83.460938 48.097656 -83.460938 C 23.105469 -83.460938 6.128906 -65.542969 6.128906 -41.378906 C 6.128906 -12.140625 28.054688 1.179688 48.097656 1.179688 Z M 15.5625 -48.214844 C 14.851562 -67.429688 25.34375 -80.75 43.261719 -80.75 C 64.363281 -80.75 79.808594 -57.761719 80.632812 -33.125 C 81.222656 -15.441406 71.910156 -1.769531 53.046875 -1.769531 C 31.945312 -1.769531 16.386719 -24.519531 15.5625 -48.214844 Z M 15.5625 -48.214844 "/></g></g></g><g fill="#171717" fill-opacity="1"><g transform="translate(511.747375, 368.336453)"><g><path d="M 6.011719 0 L 60.828125 0 L 61.652344 -13.320312 L 60.355469 -13.554688 C 56.230469 -4.714844 51.042969 -1.886719 39.726562 -1.886719 L 25.699219 -1.886719 C 22.28125 -1.886719 20.394531 -3.773438 20.394531 -7.191406 L 20.394531 -67.546875 C 20.394531 -77.214844 21.453125 -79.925781 25.109375 -80.984375 L 25.109375 -82.519531 L 6.011719 -82.519531 L 6.011719 -80.984375 C 9.546875 -79.925781 10.726562 -77.214844 10.726562 -67.546875 L 10.726562 -14.972656 C 10.726562 -5.304688 9.546875 -2.59375 6.011719 -1.53125 Z M 6.011719 0 "/></g></g></g><g fill="#171717" fill-opacity="1"><g transform="translate(575.752803, 368.336453)"><g><path d="M 6.011719 0 L 25.109375 0 L 25.109375 -1.53125 C 21.453125 -2.59375 20.394531 -5.304688 20.394531 -14.972656 L 20.394531 -67.546875 C 20.394531 -77.214844 21.453125 -79.925781 25.109375 -80.984375 L 25.109375 -82.519531 L 6.011719 -82.519531 L 6.011719 -80.984375 C 9.546875 -79.925781 10.726562 -77.214844 10.726562 -67.546875 L 10.726562 -14.972656 C 10.726562 -5.304688 9.546875 -2.59375 6.011719 -1.53125 Z M 6.011719 0 "/></g></g></g><g fill="#171717" fill-opacity="1"><g transform="translate(606.871448, 368.336453)"><g><path d="M 48.097656 1.179688 C 67.902344 1.179688 89.828125 -11.789062 89.828125 -40.90625 C 89.828125 -69.785156 68.019531 -83.460938 48.097656 -83.460938 C 23.105469 -83.460938 6.128906 -65.542969 6.128906 -41.378906 C 6.128906 -12.140625 28.054688 1.179688 48.097656 1.179688 Z M 15.5625 -48.214844 C 14.851562 -67.429688 25.34375 -80.75 43.261719 -80.75 C 64.363281 -80.75 79.808594 -57.761719 80.632812 -33.125 C 81.222656 -15.441406 71.910156 -1.769531 53.046875 -1.769531 C 31.945312 -1.769531 16.386719 -24.519531 15.5625 -48.214844 Z M 15.5625 -48.214844 "/></g></g></g><g fill="#171717" fill-opacity="1"><g transform="translate(423.739641, 255.163992)"><g><path d="M 13.1875 0.265625 C 10.957031 0.265625 8.816406 -0.09375 6.765625 -0.8125 C 4.722656 -1.53125 3.140625 -2.476562 2.015625 -3.65625 L 3.265625 -6.109375 C 4.359375 -5.015625 5.804688 -4.128906 7.609375 -3.453125 C 9.410156 -2.785156 11.269531 -2.453125 13.1875 -2.453125 C 15.882812 -2.453125 17.90625 -2.945312 19.25 -3.9375 C 20.59375 -4.925781 21.265625 -6.207031 21.265625 -7.78125 C 21.265625 -8.976562 20.898438 -9.9375 20.171875 -10.65625 C 19.441406 -11.375 18.546875 -11.925781 17.484375 -12.3125 C 16.429688 -12.695312 14.957031 -13.117188 13.0625 -13.578125 C 10.800781 -14.148438 8.992188 -14.703125 7.640625 -15.234375 C 6.296875 -15.765625 5.144531 -16.570312 4.1875 -17.65625 C 3.226562 -18.75 2.75 -20.226562 2.75 -22.09375 C 2.75 -23.601562 3.148438 -24.984375 3.953125 -26.234375 C 4.753906 -27.484375 5.984375 -28.476562 7.640625 -29.21875 C 9.304688 -29.96875 11.375 -30.34375 13.84375 -30.34375 C 15.5625 -30.34375 17.242188 -30.101562 18.890625 -29.625 C 20.535156 -29.15625 21.957031 -28.503906 23.15625 -27.671875 L 22.09375 -25.140625 C 20.832031 -25.972656 19.484375 -26.59375 18.046875 -27 C 16.617188 -27.414062 15.21875 -27.625 13.84375 -27.625 C 11.207031 -27.625 9.222656 -27.113281 7.890625 -26.09375 C 6.554688 -25.082031 5.890625 -23.773438 5.890625 -22.171875 C 5.890625 -20.972656 6.253906 -20.003906 6.984375 -19.265625 C 7.710938 -18.535156 8.628906 -17.976562 9.734375 -17.59375 C 10.835938 -17.207031 12.320312 -16.785156 14.1875 -16.328125 C 16.382812 -15.785156 18.164062 -15.25 19.53125 -14.71875 C 20.894531 -14.1875 22.046875 -13.382812 22.984375 -12.3125 C 23.929688 -11.238281 24.40625 -9.785156 24.40625 -7.953125 C 24.40625 -6.429688 23.992188 -5.046875 23.171875 -3.796875 C 22.359375 -2.554688 21.109375 -1.566406 19.421875 -0.828125 C 17.734375 -0.0976562 15.65625 0.265625 13.1875 0.265625 Z M 13.1875 0.265625 "/></g></g></g><g fill="#171717" fill-opacity="1"><g transform="translate(450.160094, 255.163992)"><g><path d="M 12.15625 -22.78125 C 15.113281 -22.78125 17.378906 -22.039062 18.953125 -20.5625 C 20.523438 -19.082031 21.3125 -16.898438 21.3125 -14.015625 L 21.3125 0 L 18.390625 0 L 18.390625 -3.53125 C 17.703125 -2.351562 16.691406 -1.429688 15.359375 -0.765625 C 14.023438 -0.109375 12.441406 0.21875 10.609375 0.21875 C 8.085938 0.21875 6.082031 -0.378906 4.59375 -1.578125 C 3.101562 -2.785156 2.359375 -4.378906 2.359375 -6.359375 C 2.359375 -8.273438 3.050781 -9.820312 4.4375 -11 C 5.832031 -12.175781 8.050781 -12.765625 11.09375 -12.765625 L 18.265625 -12.765625 L 18.265625 -14.140625 C 18.265625 -16.085938 17.71875 -17.566406 16.625 -18.578125 C 15.539062 -19.597656 13.953125 -20.109375 11.859375 -20.109375 C 10.429688 -20.109375 9.054688 -19.867188 7.734375 -19.390625 C 6.421875 -18.921875 5.289062 -18.273438 4.34375 -17.453125 L 2.96875 -19.71875 C 4.113281 -20.695312 5.488281 -21.453125 7.09375 -21.984375 C 8.695312 -22.515625 10.382812 -22.78125 12.15625 -22.78125 Z M 11.09375 -2.1875 C 12.8125 -2.1875 14.285156 -2.582031 15.515625 -3.375 C 16.742188 -4.164062 17.660156 -5.304688 18.265625 -6.796875 L 18.265625 -10.484375 L 11.171875 -10.484375 C 7.304688 -10.484375 5.375 -9.140625 5.375 -6.453125 C 5.375 -5.128906 5.875 -4.085938 6.875 -3.328125 C 7.875 -2.566406 9.28125 -2.1875 11.09375 -2.1875 Z M 11.09375 -2.1875 "/></g></g></g><g fill="#171717" fill-opacity="1"><g transform="translate(475.506552, 255.163992)"><g><path d="M 4.25 -22.609375 L 7.3125 -22.609375 L 7.3125 0 L 4.25 0 Z M 5.796875 -27.546875 C 5.160156 -27.546875 4.628906 -27.757812 4.203125 -28.1875 C 3.773438 -28.613281 3.5625 -29.128906 3.5625 -29.734375 C 3.5625 -30.304688 3.773438 -30.804688 4.203125 -31.234375 C 4.628906 -31.671875 5.160156 -31.890625 5.796875 -31.890625 C 6.421875 -31.890625 6.945312 -31.679688 7.375 -31.265625 C 7.8125 -30.847656 8.03125 -30.351562 8.03125 -29.78125 C 8.03125 -29.144531 7.8125 -28.613281 7.375 -28.1875 C 6.945312 -27.757812 6.421875 -27.546875 5.796875 -27.546875 Z M 5.796875 -27.546875 "/></g></g></g><g fill="#171717" fill-opacity="1"><g transform="translate(487.062819, 255.163992)"><g><path d="M 14.21875 -14.140625 L 8.078125 -7.90625 L 8.078125 0 L 4.90625 0 L 4.90625 -30.078125 L 8.078125 -30.078125 L 8.078125 -11.90625 L 25.734375 -30.078125 L 29.390625 -30.078125 L 16.375 -16.453125 L 30.296875 0 L 26.515625 0 Z M 14.21875 -14.140625 "/></g></g></g><g fill="#171717" fill-opacity="1"><g transform="translate(517.607442, 255.163992)"><g><path d="M 23.9375 -10.359375 L 5.03125 -10.359375 C 5.195312 -8.003906 6.097656 -6.101562 7.734375 -4.65625 C 9.367188 -3.21875 11.429688 -2.5 13.921875 -2.5 C 15.328125 -2.5 16.613281 -2.75 17.78125 -3.25 C 18.957031 -3.75 19.976562 -4.484375 20.84375 -5.453125 L 22.5625 -3.484375 C 21.5625 -2.273438 20.304688 -1.351562 18.796875 -0.71875 C 17.296875 -0.09375 15.644531 0.21875 13.84375 0.21875 C 11.519531 0.21875 9.460938 -0.273438 7.671875 -1.265625 C 5.878906 -2.253906 4.484375 -3.625 3.484375 -5.375 C 2.484375 -7.125 1.984375 -9.097656 1.984375 -11.296875 C 1.984375 -13.503906 2.460938 -15.484375 3.421875 -17.234375 C 4.378906 -18.984375 5.695312 -20.34375 7.375 -21.3125 C 9.050781 -22.289062 10.929688 -22.78125 13.015625 -22.78125 C 15.109375 -22.78125 16.984375 -22.289062 18.640625 -21.3125 C 20.304688 -20.34375 21.613281 -18.988281 22.5625 -17.25 C 23.507812 -15.519531 23.984375 -13.535156 23.984375 -11.296875 Z M 13.015625 -20.15625 C 10.835938 -20.15625 9.007812 -19.457031 7.53125 -18.0625 C 6.0625 -16.675781 5.226562 -14.867188 5.03125 -12.640625 L 21.0625 -12.640625 C 20.851562 -14.867188 20.007812 -16.675781 18.53125 -18.0625 C 17.0625 -19.457031 15.222656 -20.15625 13.015625 -20.15625 Z M 13.015625 -20.15625 "/></g></g></g><g fill="#171717" fill-opacity="1"><g transform="translate(543.555342, 255.163992)"><g><path d="M 16.15625 -1.375 C 15.582031 -0.863281 14.875 -0.46875 14.03125 -0.1875 C 13.1875 0.0820312 12.304688 0.21875 11.390625 0.21875 C 9.265625 0.21875 7.628906 -0.351562 6.484375 -1.5 C 5.335938 -2.644531 4.765625 -4.265625 4.765625 -6.359375 L 4.765625 -20.03125 L 0.734375 -20.03125 L 0.734375 -22.609375 L 4.765625 -22.609375 L 4.765625 -27.546875 L 7.828125 -27.546875 L 7.828125 -22.609375 L 14.703125 -22.609375 L 14.703125 -20.03125 L 7.828125 -20.03125 L 7.828125 -6.53125 C 7.828125 -5.1875 8.160156 -4.160156 8.828125 -3.453125 C 9.503906 -2.753906 10.472656 -2.40625 11.734375 -2.40625 C 12.359375 -2.40625 12.960938 -2.503906 13.546875 -2.703125 C 14.140625 -2.910156 14.648438 -3.195312 15.078125 -3.5625 Z M 16.15625 -1.375 "/></g></g></g><g fill="#171717" fill-opacity="1"><g transform="translate(560.997136, 255.163992)"><g><path d="M 12.15625 -22.78125 C 15.113281 -22.78125 17.378906 -22.039062 18.953125 -20.5625 C 20.523438 -19.082031 21.3125 -16.898438 21.3125 -14.015625 L 21.3125 0 L 18.390625 0 L 18.390625 -3.53125 C 17.703125 -2.351562 16.691406 -1.429688 15.359375 -0.765625 C 14.023438 -0.109375 12.441406 0.21875 10.609375 0.21875 C 8.085938 0.21875 6.082031 -0.378906 4.59375 -1.578125 C 3.101562 -2.785156 2.359375 -4.378906 2.359375 -6.359375 C 2.359375 -8.273438 3.050781 -9.820312 4.4375 -11 C 5.832031 -12.175781 8.050781 -12.765625 11.09375 -12.765625 L 18.265625 -12.765625 L 18.265625 -14.140625 C 18.265625 -16.085938 17.71875 -17.566406 16.625 -18.578125 C 15.539062 -19.597656 13.953125 -20.109375 11.859375 -20.109375 C 10.429688 -20.109375 9.054688 -19.867188 7.734375 -19.390625 C 6.421875 -18.921875 5.289062 -18.273438 4.34375 -17.453125 L 2.96875 -19.71875 C 4.113281 -20.695312 5.488281 -21.453125 7.09375 -21.984375 C 8.695312 -22.515625 10.382812 -22.78125 12.15625 -22.78125 Z M 11.09375 -2.1875 C 12.8125 -2.1875 14.285156 -2.582031 15.515625 -3.375 C 16.742188 -4.164062 17.660156 -5.304688 18.265625 -6.796875 L 18.265625 -10.484375 L 11.171875 -10.484375 C 7.304688 -10.484375 5.375 -9.140625 5.375 -6.453125 C 5.375 -5.128906 5.875 -4.085938 6.875 -3.328125 C 7.875 -2.566406 9.28125 -2.1875 11.09375 -2.1875 Z M 11.09375 -2.1875 "/></g></g></g><g fill="#171717" fill-opacity="1"><g transform="translate(586.343593, 255.163992)"><g><path d="M 15.765625 -22.78125 C 18.609375 -22.78125 20.863281 -21.953125 22.53125 -20.296875 C 24.207031 -18.648438 25.046875 -16.253906 25.046875 -13.109375 L 25.046875 0 L 22 0 L 22 -12.8125 C 22 -15.15625 21.410156 -16.941406 20.234375 -18.171875 C 19.066406 -19.410156 17.394531 -20.03125 15.21875 -20.03125 C 12.78125 -20.03125 10.851562 -19.304688 9.4375 -17.859375 C 8.019531 -16.410156 7.3125 -14.410156 7.3125 -11.859375 L 7.3125 0 L 4.25 0 L 4.25 -22.609375 L 7.171875 -22.609375 L 7.171875 -18.4375 C 8.003906 -19.8125 9.15625 -20.878906 10.625 -21.640625 C 12.101562 -22.398438 13.816406 -22.78125 15.765625 -22.78125 Z M 15.765625 -22.78125 "/></g></g></g><g fill="#171717" fill-opacity="1"><g transform="translate(615.427574, 255.163992)"><g><path d="M 4.59375 -32.09375 C 5.257812 -32.09375 5.804688 -31.867188 6.234375 -31.421875 C 6.660156 -30.984375 6.875 -30.4375 6.875 -29.78125 C 6.875 -29.4375 6.820312 -29.070312 6.71875 -28.6875 C 6.625 -28.300781 6.488281 -27.847656 6.3125 -27.328125 L 4.46875 -21.40625 L 2.40625 -21.40625 L 3.90625 -27.59375 C 3.425781 -27.726562 3.039062 -27.988281 2.75 -28.375 C 2.46875 -28.769531 2.328125 -29.238281 2.328125 -29.78125 C 2.328125 -30.46875 2.539062 -31.023438 2.96875 -31.453125 C 3.394531 -31.878906 3.9375 -32.09375 4.59375 -32.09375 Z M 4.59375 -32.09375 "/></g></g></g><g fill="#171717" fill-opacity="1"><g transform="translate(624.5351, 255.163992)"><g><path d="M 10.3125 0.21875 C 8.476562 0.21875 6.722656 -0.046875 5.046875 -0.578125 C 3.367188 -1.109375 2.0625 -1.773438 1.125 -2.578125 L 2.5 -4.984375 C 3.4375 -4.242188 4.617188 -3.632812 6.046875 -3.15625 C 7.484375 -2.6875 8.976562 -2.453125 10.53125 -2.453125 C 12.59375 -2.453125 14.117188 -2.773438 15.109375 -3.421875 C 16.097656 -4.066406 16.59375 -4.972656 16.59375 -6.140625 C 16.59375 -6.972656 16.316406 -7.625 15.765625 -8.09375 C 15.222656 -8.570312 14.535156 -8.929688 13.703125 -9.171875 C 12.878906 -9.421875 11.78125 -9.660156 10.40625 -9.890625 C 8.570312 -10.234375 7.09375 -10.582031 5.96875 -10.9375 C 4.851562 -11.289062 3.898438 -11.894531 3.109375 -12.75 C 2.328125 -13.613281 1.9375 -14.804688 1.9375 -16.328125 C 1.9375 -18.222656 2.722656 -19.769531 4.296875 -20.96875 C 5.867188 -22.175781 8.0625 -22.78125 10.875 -22.78125 C 12.332031 -22.78125 13.789062 -22.582031 15.25 -22.1875 C 16.71875 -21.800781 17.921875 -21.296875 18.859375 -20.671875 L 17.53125 -18.21875 C 15.664062 -19.507812 13.445312 -20.15625 10.875 -20.15625 C 8.925781 -20.15625 7.457031 -19.8125 6.46875 -19.125 C 5.476562 -18.4375 4.984375 -17.535156 4.984375 -16.421875 C 4.984375 -15.554688 5.257812 -14.863281 5.8125 -14.34375 C 6.375 -13.832031 7.070312 -13.453125 7.90625 -13.203125 C 8.738281 -12.960938 9.882812 -12.71875 11.34375 -12.46875 C 13.144531 -12.125 14.585938 -11.78125 15.671875 -11.4375 C 16.765625 -11.09375 17.695312 -10.503906 18.46875 -9.671875 C 19.25 -8.835938 19.640625 -7.691406 19.640625 -6.234375 C 19.640625 -4.253906 18.816406 -2.679688 17.171875 -1.515625 C 15.523438 -0.359375 13.238281 0.21875 10.3125 0.21875 Z M 10.3125 0.21875 "/></g></g></g></svg>